<svg id="Capa_1" enable-background="new 0 0 512.86 512.86" height="512" viewBox="0 0 512.86 512.86" width="512" xmlns="http://www.w3.org/2000/svg"><g><g><path d="m509.349 104.449c-2.54-2.782-6.156-4.378-9.923-4.378h-181.862c-3.767 0-7.384 1.596-9.923 4.378-2.539 2.783-3.799 6.53-3.455 10.282l10.916 119.124c-4.835-1.067-9.861-1.253-14.815-.51-4.205-10.693-12.836-19.279-23.808-23.273-10.97-3.991-23.101-2.963-33.195 2.525-7.609-8.609-18.656-13.726-30.331-13.726-11.676 0-22.722 5.115-30.331 13.726-10.094-5.487-22.225-6.516-33.197-2.525-10.972 3.994-19.602 12.58-23.807 23.273-11.36-1.704-23.113 1.478-32.058 8.981-8.944 7.505-14.118 18.524-14.412 30.012-11.26 2.284-21.214 9.293-27.052 19.403-5.837 10.111-6.93 22.236-3.279 33.131-7.991 4.891-14.089 12.437-17.168 21.289h-15.75c-5.397 0-10.377 2.701-13.32 7.225-2.943 4.524-3.396 10.171-1.209 15.104l7.138 16.11c7.587 17.123 24.59 28.187 43.318 28.187h37.324c4.142 0 7.5-3.357 7.5-7.5s-3.358-7.5-7.5-7.5h-37.324c-12.799 0-24.419-7.562-29.604-19.263l-7.138-16.111c-.048-.108-.196-.441.068-.847.264-.405.628-.405.748-.405h394.107c.12 0 .484 0 .748.405s.116.738.068.848l-7.138 16.11c-5.185 11.701-16.934 19.263-29.932 19.264l-249.928-.001c-4.142 0-7.5 3.358-7.5 7.5s3.358 7.5 7.5 7.5h349.408c6.989 0 12.741-5.248 13.378-12.208l26.194-285.85c.343-3.749-.917-7.496-3.456-10.28zm-461.206 241.713c2.968-4.849 7.532-8.671 13.035-10.684 2.078-.761 3.714-2.399 4.471-4.479s.557-4.387-.546-6.305c-4.528-7.875-4.535-17.628-.017-25.453s12.968-12.695 22.051-12.711c2.213-.004 4.311-.984 5.733-2.679s2.023-3.932 1.643-6.111c-1.562-8.948 1.767-18.115 8.689-23.924 6.921-5.808 16.527-7.494 25.069-4.402 2.081.753 4.388.549 6.303-.557 1.916-1.106 3.246-3.002 3.634-5.181 1.592-8.942 7.856-16.419 16.347-19.51 8.493-3.091 18.097-1.39 25.064 4.438 1.697 1.419 3.936 2.021 6.113 1.632 2.179-.384 4.077-1.711 5.187-3.625 4.555-7.858 12.998-12.74 22.034-12.74s17.479 4.882 22.034 12.74c1.109 1.914 3.008 3.241 5.187 3.625 2.177.389 4.417-.213 6.113-1.632 6.969-5.827 16.572-7.526 25.063-4.438 8.491 3.091 14.755 10.566 16.348 19.51.388 2.179 1.718 4.074 3.634 5.181 1.917 1.106 4.224 1.311 6.303.557 8.541-3.089 18.147-1.405 25.069 4.402 6.922 5.809 10.251 14.976 8.689 23.924-.38 2.18.221 4.416 1.643 6.111 1.422 1.694 3.521 2.675 5.733 2.679 9.084.016 17.534 4.886 22.052 12.711s4.511 17.578-.018 25.453c-1.103 1.918-1.303 4.226-.546 6.305s2.394 3.718 4.471 4.479c5.503 2.013 10.068 5.835 13.035 10.684zm446.628-199.017h-24.203c-4.142 0-7.5 3.357-7.5 7.5s3.358 7.5 7.5 7.5h22.824l-21.589 235.644h-63.177c3.593-3.812 6.581-8.245 8.771-13.187l7.138-16.109c2.187-4.935 1.735-10.581-1.209-15.105-2.943-4.523-7.923-7.225-13.32-7.225h-15.75c-3.079-8.852-9.177-16.398-17.168-21.289 3.652-10.895 2.56-23.02-3.278-33.131-5.838-10.11-15.792-17.119-27.053-19.403-.294-11.487-5.468-22.508-14.412-30.012-.495-.415-1.002-.812-1.513-1.201l-6.281-68.538c.004.001.008.002.012.003l-.957-10.446h112.037c4.142 0 7.5-3.357 7.5-7.5s-3.358-7.5-7.5-7.5h-113.424l-2.939-32.073h178.43z"/><path d="m181.789 251.087-6.911 7.531c-2.801 3.052-2.597 7.797.455 10.598 1.44 1.321 3.257 1.974 5.069 1.974 2.027 0 4.049-.817 5.528-2.429l6.911-7.531c2.801-3.052 2.597-7.797-.455-10.598-3.051-2.8-7.796-2.597-10.597.455z"/><path d="m302.732 302.92-6.911 7.532c-2.8 3.052-2.596 7.796.456 10.597 1.44 1.321 3.257 1.974 5.068 1.974 2.028 0 4.049-.817 5.528-2.43l6.911-7.532c2.8-3.052 2.596-7.796-.456-10.597s-7.796-2.597-10.596.456z"/><path d="m131.505 302.646-9.627-3.437c-3.902-1.396-8.193.641-9.585 4.542-1.393 3.901.641 8.192 4.542 9.585l9.627 3.437c.833.298 1.685.438 2.521.438 3.081 0 5.968-1.913 7.063-4.98 1.394-3.902-.64-8.193-4.541-9.585z"/><path d="m248.556 284.416-9.727-3.144c-3.942-1.273-8.168.89-9.443 4.83-1.273 3.941.889 8.169 4.831 9.443l9.727 3.144c.767.248 1.543.365 2.308.365 3.166 0 6.109-2.021 7.135-5.195 1.273-3.941-.89-8.169-4.831-9.443z"/></g></g></svg>