<?xml version="1.0" encoding="iso-8859-1"?>
<!-- Generator: Adobe Illustrator 19.0.0, SVG Export Plug-In . SVG Version: 6.00 Build 0)  -->
<svg version="1.1" id="Capa_1" xmlns="http://www.w3.org/2000/svg" xmlns:xlink="http://www.w3.org/1999/xlink" x="0px" y="0px"
	 viewBox="0 0 512.001 512.001" style="enable-background:new 0 0 512.001 512.001;" xml:space="preserve">
<g>
	<g>
		<path d="M502,190H454.39v-74c0-34.187-27.813-62-62-62h-16.78c-41.869,0-83.387,10.674-120.065,30.867
			c-35.053,19.299-65.101,46.998-87.241,80.295h-32.86c-1.818-7.691-5.736-14.749-11.466-20.479
			c-8.142-8.142-18.966-12.626-30.479-12.625c-23.771,0-43.109,19.339-43.109,43.109c0,5.106,0.933,10.121,2.693,14.832H10
			c-5.523,0-10,4.478-10,10v302c0,5.522,4.477,10,10,10s10-4.478,10-10V210h33.083c-1.76,4.711-2.693,9.726-2.693,14.832
			c0,23.771,19.339,43.109,43.11,43.109c20.327,0,37.412-14.143,41.934-33.104l32.867-0.004c22.14,33.299,52.19,61,87.245,80.3
			C292.222,335.326,333.74,346,375.609,346h16.78c34.187,0,62-27.813,62-62v-74H492v292c0,5.522,4.477,10,10,10s10-4.478,10-10V200
			C512,194.478,507.523,190,502,190z M163.703,214.835l-37.101,0.003c-5.522,0.001-9.999,4.478-9.999,10
			c0,12.739-10.364,23.104-23.104,23.104c-12.743,0-23.11-10.367-23.11-23.109c0-4.331,1.216-8.448,3.488-12.042
			c4.042,1.773,8.892,3.109,14.096,3.109c2.859,0,5.825-0.402,8.813-1.354c5.263-1.675,8.171-7.3,6.496-12.563
			c-1.674-5.263-7.301-8.168-12.562-6.496c-5.604,1.789-11.566-2.464-12.458-3.134c-5.076-4.505-7.873-10.599-7.873-17.184
			c0-12.742,10.367-23.109,23.11-23.109c6.17,0,11.972,2.403,16.336,6.767c4.364,4.364,6.767,10.166,6.767,16.337
			c0,2.652,1.053,5.195,2.929,7.071c1.875,1.875,4.419,2.929,7.071,2.929h37.101V214.835z M345.057,323.982
			c-65.829-8.732-124.549-45.47-161.352-102.076v-43.813c36.803-56.605,95.523-93.343,161.352-102.075
			c-9.14,10.803-14.667,24.756-14.667,39.982v168C330.39,299.226,335.917,313.178,345.057,323.982z M434.39,190h-12v-6
			c0-16.542-13.458-30-30-30s-30,13.458-30,30v32c0,16.542,13.458,30,30,30s30-13.458,30-30v-6h12v74c0,23.159-18.841,42-42,42
			s-42-18.841-42-42V116c0-23.159,18.841-42,42-42s42,18.841,42,42V190z M402.39,210v6c0,5.514-4.486,10-10,10
			c-5.514,0-10-4.486-10-10v-32c0-5.514,4.486-10,10-10c5.514,0,10,4.486,10,10v6c-5.523,0-10,4.478-10,10
			C392.39,205.522,396.867,210,402.39,210z"/>
	</g>
</g>
<g>
	<g>
		<path d="M390.104,492h-19.431v-4.783c0-10.87-2.606-21.736-7.536-31.422c-9.866-19.388-10.294-41.834-1.175-61.583l7.791-16.872
			c1.255-2.72,1.226-5.859-0.081-8.555s-3.753-4.663-6.666-5.361c-1.484-0.355-14.971-3.346-31.078,1.365
			c-10.302,3.013-22.914,9.621-33.064,23.912c-8.727-20.063-26.101-42.064-57.254-53.19c-3.567-1.277-7.549-0.424-10.284,2.199
			c-2.734,2.621-3.753,6.563-2.63,10.182c12.149,39.142-12.24,66.382-23.688,76.561c-4.167-4.343-9.446-13.092-7.91-28.851
			c0.383-3.925-1.576-7.707-5.002-9.659c-3.425-1.952-7.678-1.709-10.859,0.621c-24.99,18.302-39.909,55.701-39.909,100.042
			c0,1.795,0.058,3.594,0.142,5.395H81.93c-5.523,0-10,4.478-10,10c0,5.522,4.477,10,10,10h308.175c5.523,0,10-4.478,10-10
			C400.104,496.479,395.627,492,390.104,492z M350.672,492H161.48c-0.102-1.8-0.153-3.601-0.153-5.395
			c0-22.439,4.879-49.631,17.647-68.839c5.783,20.631,21.242,28.001,22.1,28.396c3.203,1.471,6.942,1.147,9.844-0.852
			c0.584-0.401,14.425-10.041,25.836-27.356c11.369-17.252,16.426-36.087,15.005-55.365c24.646,15.831,33.369,41.106,34.48,55.562
			c0.37,4.801,4.106,8.656,8.893,9.175c4.787,0.527,9.263-2.445,10.652-7.056c5.823-19.322,16.262-31.456,31.025-36.063
			c2.993-0.935,5.896-1.471,8.551-1.753l-1.558,3.374c-11.704,25.348-11.154,54.156,1.509,79.039
			c3.507,6.89,5.36,14.618,5.36,22.351V492z"/>
	</g>
</g>
<g>
	<g>
		<path d="M437.141,494.93c-1.86-1.861-4.43-2.93-7.07-2.93c-2.63,0-5.21,1.069-7.07,2.93c-1.86,1.86-2.93,4.44-2.93,7.07
			s1.07,5.21,2.93,7.069c1.86,1.86,4.44,2.931,7.07,2.931s5.21-1.07,7.07-2.931c1.86-1.859,2.93-4.439,2.93-7.069
			S439,496.79,437.141,494.93z"/>
	</g>
</g>
<g>
	<g>
		<path d="M256,22.819c-5.523,0-10,4.478-10,10v21c0,5.523,4.477,10,10,10s10-4.478,10-10v-21C266,27.297,261.523,22.819,256,22.819
			z"/>
	</g>
</g>
<g>
	<g>
		<path d="M448,17.819c-5.523,0-10,4.478-10,10v21c0,5.523,4.477,10,10,10s10-4.478,10-10v-21C458,22.297,453.523,17.819,448,17.819
			z"/>
	</g>
</g>
<g>
	<g>
		<path d="M340.39,0c-5.523,0-10,4.478-10,10v14.5c0,5.522,4.477,10,10,10s10-4.478,10-10V10C350.39,4.478,345.913,0,340.39,0z"/>
	</g>
</g>
<g>
	<g>
		<path d="M284.198,133.434c-2.554-4.897-8.594-6.797-13.491-4.242c-23.437,12.225-43.715,28.127-60.27,47.266
			c-3.613,4.177-3.156,10.492,1.021,14.105c1.891,1.635,4.219,2.437,6.538,2.437c2.803,0,5.59-1.172,7.567-3.458
			c14.9-17.225,33.2-31.563,54.393-42.617C284.854,144.371,286.753,138.331,284.198,133.434z"/>
	</g>
</g>
<g>
	<g>
		<path d="M315.556,121.823c-1.744-5.238-7.424-8.063-12.665-6.319l-0.308,0.104c-5.225,1.789-8.009,7.476-6.22,12.7
			c1.422,4.151,5.304,6.763,9.459,6.763c1.075,0,2.168-0.175,3.242-0.543l0.146-0.049c0,0,0.039-0.013,0.04-0.013
			C314.49,132.719,317.302,127.063,315.556,121.823z"/>
	</g>
</g>
<g>
</g>
<g>
</g>
<g>
</g>
<g>
</g>
<g>
</g>
<g>
</g>
<g>
</g>
<g>
</g>
<g>
</g>
<g>
</g>
<g>
</g>
<g>
</g>
<g>
</g>
<g>
</g>
<g>
</g>
</svg>
