<svg xmlns="http://www.w3.org/2000/svg" xmlns:xlink="http://www.w3.org/1999/xlink" viewBox="0 0 66.71 66.71"><defs><style>.cls-1{fill:url(#linear-gradient);}.cls-2{stroke:#fff;stroke-miterlimit:10;fill:url(#linear-gradient-2);}</style><linearGradient id="linear-gradient" x1="59.37" y1="7.35" x2="7.35" y2="59.37" gradientUnits="userSpaceOnUse"><stop offset="0" stop-color="#4d4d4d"/><stop offset="0.28" stop-color="#2c2c2c"/><stop offset="0.55" stop-color="#141414"/><stop offset="0.79" stop-color="#050505"/><stop offset="1"/></linearGradient><linearGradient id="linear-gradient-2" x1="38.5" y1="30.83" x2="27.51" y2="41.82" xlink:href="#linear-gradient"/></defs><g id="Layer_2" data-name="Layer 2"><g id="Layer_1-2" data-name="Layer 1"><path class="cls-1" d="M66.52,48,55.41,4.6A6.12,6.12,0,0,0,48,.19L4.6,11.3A6.12,6.12,0,0,0,.19,18.74L11.3,62.11a6.12,6.12,0,0,0,7.44,4.41l13.4-3.43L17.18,38a5.08,5.08,0,0,1-.9-3.92,5.62,5.62,0,0,1,2.77-3l9-5.34a27,27,0,0,1,6.47-3,10.55,10.55,0,0,1,4.82-.23,10.14,10.14,0,0,1,4.33,1.94,13.69,13.69,0,0,1,3.45,4q3.14,5.28,1.51,9.92t-8,8.48L34.16,50.6,40,60.35c.13.22.22.43.33.64l21.8-5.58A6.12,6.12,0,0,0,66.52,48Z"/><path class="cls-2" d="M39.54,39.55a5.55,5.55,0,0,0,1.51-3.2,5.83,5.83,0,0,0-1-3.59,6.08,6.08,0,0,0-3.56-2.92q-2.41-.63-7.09,2.16l-4.7,2.8L31,45.33l4.7-2.8A16.1,16.1,0,0,0,39.54,39.55Z"/></g></g></svg>