<svg xmlns="http://www.w3.org/2000/svg" width="28.422" height="23.533" viewBox="0 0 28.422 23.533">
  <path id="Icon_map-food" data-name="Icon map-food" d="M28.059,8.809,25.813,25.245H18.226L15.989,8.727h9.262l1.831-5.9,1.038.292L26.364,8.8l1.7.012ZM14.917,17.3s.284-4.182-3.65-4.182H5c-2.353,0-3.3,1.709-3.651,3.464a7.691,7.691,0,0,0,0,1.148c-.007-.114,0-.43,0-.43ZM1.35,23.113S1.072,25.245,5,25.245h6.266c3.934,0,3.65-2.131,3.65-2.131ZM14.413,21.25c.644,0,1.079.2,1.079-.534s-.226-1.912-.87-1.912H1.885c-.641,0-1.057.873-1.057,1.615s.416.831,1.057.831H14.413Z" transform="translate(-0.327 -2.211)" fill="none" stroke="#000" stroke-width="1"/>
</svg>
