<svg xmlns="http://www.w3.org/2000/svg" width="25.75" height="23.42" viewBox="0 0 25.75 23.42">
  <g id="Icon_ionic-ios-stats" data-name="Icon ionic-ios-stats" transform="translate(-5.125 -3.96)">
    <path id="Path_13" data-name="Path 13" d="M12.938,26.84h3.375a.522.522,0,0,0,.563-.465V4.965a.522.522,0,0,0-.562-.465H12.938a.522.522,0,0,0-.562.465V26.375A.522.522,0,0,0,12.938,26.84Z" fill="none" stroke="#000" stroke-width="1"/>
    <path id="Path_14" data-name="Path 14" d="M6.188,31.5H9.563a.564.564,0,0,0,.563-.562V20.813a.564.564,0,0,0-.562-.562H6.188a.564.564,0,0,0-.562.563V30.938A.564.564,0,0,0,6.188,31.5Z" transform="translate(0 -4.66)" fill="none" stroke="#000" stroke-width="1"/>
    <path id="Path_15" data-name="Path 15" d="M19.695,31.5h3.361a.567.567,0,0,0,.57-.57V16.32a.567.567,0,0,0-.57-.57H19.695a.567.567,0,0,0-.57.57V30.93A.567.567,0,0,0,19.695,31.5Z" transform="translate(0 -4.66)" fill="none" stroke="#000" stroke-width="1"/>
    <path id="Path_16" data-name="Path 16" d="M25.875,9.568V30.852a.566.566,0,0,0,.57.568h3.361a.566.566,0,0,0,.57-.568V9.568A.566.566,0,0,0,29.805,9H26.445A.566.566,0,0,0,25.875,9.568Z" transform="translate(0 -4.54)" fill="none" stroke="#000" stroke-width="1"/>
  </g>
</svg>
