<svg xmlns="http://www.w3.org/2000/svg" width="26.923" height="23.419" viewBox="0 0 26.923 23.419">
  <g id="Icon_feather-users" data-name="Icon feather-users" transform="translate(0.5 0.5)">
    <path id="Path_7" data-name="Path 7" d="M21.428,29.973V27.482A4.982,4.982,0,0,0,16.446,22.5H6.482A4.982,4.982,0,0,0,1.5,27.482v2.491" transform="translate(-1.5 -7.554)" fill="none" stroke="#000" stroke-linecap="round" stroke-linejoin="round" stroke-width="1"/>
    <path id="Path_8" data-name="Path 8" d="M17.464,9.482A4.982,4.982,0,1,1,12.482,4.5a4.982,4.982,0,0,1,4.982,4.982Z" transform="translate(-2.94 -4.5)" fill="none" stroke="#000" stroke-linecap="round" stroke-linejoin="round" stroke-width="1"/>
    <path id="Path_9" data-name="Path 9" d="M33.736,30.006V27.515A4.982,4.982,0,0,0,30,22.7" transform="translate(-7.814 -7.587)" fill="none" stroke="#000" stroke-linecap="round" stroke-linejoin="round" stroke-width="1"/>
    <path id="Path_10" data-name="Path 10" d="M24,4.7a4.982,4.982,0,0,1,0,9.653" transform="translate(-6.485 -4.533)" fill="none" stroke="#000" stroke-linecap="round" stroke-linejoin="round" stroke-width="1"/>
  </g>
</svg>
